<?xml version="1.0" encoding="utf-8"?>
<!-- Generator: Adobe Illustrator 19.2.1, SVG Export Plug-In . SVG Version: 6.00 Build 0)  -->
<svg version="1.1" id="Layer_1" xmlns="http://www.w3.org/2000/svg" xmlns:xlink="http://www.w3.org/1999/xlink" x="0px" y="0px"
	 viewBox="0 0 236 44" style="enable-background:new 0 0 236 44;" xml:space="preserve">
<style type="text/css">
	.st0{fill:#D2F7FB;}
</style>
<g>
	<path class="st0" d="M31.3,42.1C13.8,42.1,0,33.1,0,21.8C0,10.8,13.8,2,31,2c17.6,0,31,8.7,31,20.1C62,33.1,48.2,42.1,31.3,42.1z
		 M49,10.9c0-3.4-8.2-6.3-18.2-6.3c-9.8,0-17.6,2.8-17.6,6.5c0,2.3,3.7,4.6,10.3,5.7l0.4,0.1c1-7.3,4-12,7.3-12c3.1,0,6.1,5.2,7,12
		C44.9,15.9,49,13.6,49,10.9z M57.6,21.2c0-3.2-1.2-6.4-3.5-9.2v0.4c0,4.1-6.3,7.9-15.1,9.2l-0.2,0.1v0.2c0,8.5-1.8,14.4-5.2,17.8
		C47.2,38.8,57.6,30.8,57.6,21.2z M4.5,21.1c0,9.7,10.1,17.4,24.2,18.6c-3.4-3.3-5.2-9-5.2-17.4v-0.6l-0.4-0.1
		C14,19.8,8,16.5,8,12.3c0-0.1,0-0.1,0.1-0.4C5.7,14.7,4.5,17.9,4.5,21.1z M35.4,17c-0.8-4.9-2.3-7.4-4.4-7.4
		c-1.9,0-3.6,2.8-4.4,7.6l0.3,0.1c1.3,0.1,2.7,0.1,4.2,0.1c1.4,0,2.8-0.1,4-0.1h0.4L35.4,17z M31.6,22.2c-1.9,0-3.7-0.1-5-0.2h-0.2
		c0.2,6.9,2.2,11.5,4.9,11.5c2.5,0,4.5-4.9,4.7-11.5C34.3,22.2,33.8,22.2,31.6,22.2z"/>
	<path class="st0" d="M91.8,13.6h-8.9v22.7h-6.4V13.6h-8.7V8.2h23.9V13.6z"/>
	<path class="st0" d="M108.1,37.4c-8.2,0-14.8-6.6-14.8-14.9c0-8.4,6.7-15.2,15-15.2c8.1,0,14.9,6.8,14.9,14.9
		C123.1,30.7,116.4,37.4,108.1,37.4z M108.3,13c-4.9,0-8.3,3.7-8.3,9.3c-0.1,5.7,3.2,9.3,8.1,9.3c4.9,0,8.1-3.7,8.1-9.4
		C116.2,16.8,113,13,108.3,13z"/>
	<path class="st0" d="M141,26v10.3h-6.4V25.9L123.4,8.2h7.4l7,11.8L145,8.2h7.3L141,26z"/>
	<path class="st0" d="M167.1,37.4c-8.2,0-14.8-6.6-14.8-14.9c0-8.4,6.7-15.2,15-15.2c8.1,0,14.9,6.8,14.9,14.9
		C182.2,30.7,175.5,37.4,167.1,37.4z M167.4,13c-4.9,0-8.3,3.7-8.3,9.3c-0.1,5.7,3.2,9.3,8.1,9.3c4.9,0,8.1-3.7,8.1-9.4
		C175.3,16.8,172.1,13,167.4,13z"/>
	<path class="st0" d="M207.5,13.6h-8.9v22.7h-6.4V13.6h-8.7V8.2h23.9V13.6z"/>
	<path class="st0" d="M236,36.3h-6.9l-2.4-6.2h-12l-2.3,6.2h-6.9l11.3-28.1h7.9L236,36.3z M216.6,25.1h8.1l-4-10.8L216.6,25.1z"/>
</g>
</svg>
